<?xml version="1.0" encoding="utf-8"?>
<svg viewBox="0 0 500 500" xmlns="http://www.w3.org/2000/svg">
  <path fill="rgb(254,0,0)" stroke="rgb(254,0,0)" stroke-width="0" d="M 236.2 90.279 C 245.244 90.192 252.892 90.191 264.381 95.699 C 282.253 104.266 319.729 134.62 333.208 148.268 C 341.402 156.564 343.674 161.572 347.298 168.861 C 350.867 176.037 353.315 181.862 354.886 191.623 C 357.027 204.927 358.642 229.147 355.97 243.65 C 353.742 255.74 348.039 265.803 342.963 273.999 C 338.626 281.001 334.94 285.037 328.33 290.799 C 319.929 298.124 306.182 307.344 294.73 313.561 C 283.761 319.515 272.222 324.001 261.129 327.652 C 250.554 331.132 241.696 333.87 229.696 335.239 C 215.552 336.852 195.58 337.555 180.921 335.239 C 167.697 333.149 155.548 329.059 145.153 323.316 C 135.286 317.864 125.805 310.106 119.681 302.18 C 114.105 294.962 110.661 286.761 108.842 278.334 C 106.999 269.793 106.622 261.617 108.842 251.237 C 111.691 237.92 126.233 217.004 128.352 204.63 C 129.866 195.791 124.532 190.462 126.185 182.952 C 128.089 174.297 134.397 165.255 141.359 155.855 C 149.667 144.637 162.547 130.767 174.418 120.628 C 185.905 110.818 200.043 100.647 211.27 95.699 C 220.258 91.738 227.571 90.362 236.2 90.279 Z M 237.825 121.712 C 231.18 121.802 223.879 124.812 217.232 128.216 C 210.118 131.858 204.456 136.072 196.638 143.39 C 185.819 153.516 159.905 181.547 158.701 186.746 C 158.329 188.354 159.979 187.669 160.869 188.913 C 162.484 191.171 167.736 194.748 167.373 200.836 C 166.712 211.909 143.214 240.231 140.275 255.031 C 138.14 265.788 139.831 275.31 143.527 282.128 C 146.843 288.247 153.347 291.612 159.785 295.135 C 166.864 299.008 174.81 302.218 184.715 303.806 C 196.794 305.743 216.466 305.139 228.07 303.806 C 236.972 302.784 241.933 300.962 249.748 298.386 C 258.726 295.427 269.458 291.542 279.013 286.464 C 288.986 281.163 300.526 275.393 308.278 266.954 C 316.095 258.444 323.003 247.124 325.621 235.521 C 328.358 223.385 326.466 206.758 323.453 195.417 C 320.84 185.583 318.169 179.519 310.446 170.487 C 299.361 157.523 269.438 134.43 256.252 127.132 C 248.364 122.766 244.167 121.627 237.825 121.712 Z" style="fill: rgb(166, 209, 48); stroke: rgb(129, 151, 57); stroke-width: 2px;"/>
</svg>