<!--?xml version="1.0" encoding="utf-8"?-->
<!-- Generator: Adobe Illustrator 19.1.1, SVG Export Plug-In . SVG Version: 6.00 Build 0)  -->
<svg version="1.1" id="_x31_0" xmlns="http://www.w3.org/2000/svg" xmlns:xlink="http://www.w3.org/1999/xlink" x="0px" y="0px" viewBox="0 0 512 512" style="width: 256px; height: 256px; opacity: 1;" xml:space="preserve">
<style type="text/css">
	.st0{fill:#374149;}
</style>
<g>
	<path class="st0" d="M322.164,61.245v-33.77c0-3.878-3.34-6.914-7.203-6.543L14.629,49.69C6.332,50.487,0,57.456,0,65.788v380.515
		c0,8.336,6.336,15.305,14.633,16.098l300.332,28.668c3.859,0.367,7.199-2.668,7.199-6.542v-33.672H512V61.245H322.164z
		 M481.25,420.104H322.164v-34.949v-48.078v-21.422v-48.074v-21.527v-48.074v-21.422v-48.07V91.995H481.25V420.104z
		 M149.836,215.776l0.047-0.09l0.094,0.164l27.242-50.75l34.301-2.961l20.234-1.652l-57.558,93.27l38.454,60.969l23.304,37.137
		l-55.386-4.856l-30.59-55.406l-28.559,50.234l-31.171-2.738l-13.63-1.266l50.2-84.031l-33.02-55.976l-14.16-24.141l44.68-3.934
		l16.734,30.066L149.836,215.776z" style="fill: rgb(75, 75, 75);"></path>
	<polygon class="st0" points="373.726,128.487 338.121,128.487 338.012,128.487 338.012,128.487 337.851,128.487 337.851,176.557 
		373.726,176.557 	" style="fill: rgb(75, 75, 75);"></polygon>
	<polygon class="st0" points="445.066,128.487 390.66,128.487 390.492,128.487 390.492,128.487 390.336,128.487 390.336,176.557 
		445.066,176.557 	" style="fill: rgb(75, 75, 75);"></polygon>
	<rect x="337.851" y="197.979" class="st0" width="35.875" height="48.074" style="fill: rgb(75, 75, 75);"></rect>
	<rect x="390.336" y="197.979" class="st0" width="54.73" height="48.074" style="fill: rgb(75, 75, 75);"></rect>
	<rect x="337.851" y="267.581" class="st0" width="35.875" height="48.074" style="fill: rgb(75, 75, 75);"></rect>
	<rect x="390.336" y="267.581" class="st0" width="54.73" height="48.074" style="fill: rgb(75, 75, 75);"></rect>
	<polygon class="st0" points="373.726,337.077 338.121,337.077 338.012,337.073 338.012,337.077 337.851,337.077 337.851,385.155 
		373.726,385.155 	" style="fill: rgb(75, 75, 75);"></polygon>
	<polygon class="st0" points="445.066,337.077 390.66,337.077 390.492,337.073 390.492,337.077 390.336,337.077 390.336,385.155 
		445.066,385.155 	" style="fill: rgb(75, 75, 75);"></polygon>
</g>
</svg>
