<?xml version="1.0" standalone="no"?>
<!DOCTYPE svg PUBLIC "-//W3C//DTD SVG 20010904//EN"
 "http://www.w3.org/TR/2001/REC-SVG-20010904/DTD/svg10.dtd">
<svg version="1.0" xmlns="http://www.w3.org/2000/svg"
 width="808.000000pt" height="808.000000pt" viewBox="0 0 808.000000 808.000000"
 preserveAspectRatio="xMidYMid meet">
<metadata>
Created by potrace 1.14, written by Peter Selinger 2001-2017
</metadata>
<g transform="translate(0.000000,808.000000) scale(0.100000,-0.100000)"
fill="#000000" stroke="none">
<path d="M3848 7935 c-1 -1 -49 -6 -104 -9 -56 -4 -110 -8 -120 -10 -11 -2
-44 -7 -74 -11 -53 -6 -214 -32 -255 -40 -60 -12 -83 -17 -163 -36 -48 -11
-98 -24 -112 -29 -14 -4 -68 -21 -120 -36 -52 -15 -99 -31 -105 -35 -5 -4 -26
-10 -45 -14 -19 -4 -41 -11 -50 -16 -8 -5 -51 -23 -95 -40 -333 -129 -749
-373 -1016 -597 -247 -206 -437 -400 -615 -627 -119 -153 -231 -320 -337 -505
-156 -272 -345 -762 -390 -1010 -3 -14 -10 -43 -15 -65 -6 -22 -14 -56 -17
-75 -7 -42 -23 -137 -29 -165 -2 -11 -7 -49 -11 -85 -4 -36 -9 -73 -11 -84
-17 -92 -24 -559 -10 -726 57 -678 271 -1298 639 -1855 44 -66 101 -147 126
-180 26 -33 64 -82 85 -109 95 -125 339 -379 486 -506 249 -216 512 -393 805
-540 229 -116 373 -173 660 -263 77 -24 248 -66 333 -82 42 -8 91 -17 107 -20
59 -11 252 -35 335 -43 108 -9 538 -9 650 0 611 52 1197 243 1714 560 336 206
597 423 891 743 39 42 206 251 244 305 235 332 432 712 532 1027 12 37 24 73
28 78 3 6 6 15 7 20 1 6 16 60 33 120 17 61 33 119 35 130 3 11 9 40 15 65 11
49 18 86 27 139 3 18 8 43 10 55 12 59 29 192 39 306 4 36 8 81 11 100 6 40 5
447 -1 500 -2 19 -6 71 -9 115 -6 68 -27 232 -40 300 -2 11 -7 40 -11 65 -4
25 -13 70 -20 100 -8 30 -16 67 -19 82 -8 47 -57 220 -94 328 -83 249 -179
465 -315 705 -51 92 -213 339 -251 386 -11 14 -32 41 -46 59 -27 37 -107 134
-155 190 -43 51 -321 328 -380 380 -156 137 -443 340 -640 452 -296 168 -651
310 -985 392 -80 19 -161 38 -180 41 -19 3 -48 8 -65 11 -16 3 -37 7 -45 9
-15 4 -216 31 -305 40 -57 6 -551 15 -557 10z"/>
</g>
</svg>
